<svg width="58" height="58" viewBox="0 0 58 58" fill="none" xmlns="http://www.w3.org/2000/svg">
<path d="M33.5312 34.4375C37.1365 34.4375 40.5942 33.0053 43.1435 30.456C45.6928 27.9067 47.125 24.449 47.125 20.8438C47.125 17.2385 45.6928 13.7808 43.1435 11.2315C40.5942 8.68219 37.1365 7.25 33.5312 7.25H19.9375C19.4568 7.25 18.9958 7.44096 18.6559 7.78087C18.316 8.12078 18.125 8.5818 18.125 9.0625V30.8125H12.6875C12.2068 30.8125 11.7458 31.0035 11.4059 31.3434C11.066 31.6833 10.875 32.1443 10.875 32.625C10.875 33.1057 11.066 33.5667 11.4059 33.9066C11.7458 34.2465 12.2068 34.4375 12.6875 34.4375H18.125V38.0625H12.6875C12.2068 38.0625 11.7458 38.2535 11.4059 38.5934C11.066 38.9333 10.875 39.3943 10.875 39.875C10.875 40.3557 11.066 40.8167 11.4059 41.1566C11.7458 41.4965 12.2068 41.6875 12.6875 41.6875H18.125V48.9375C18.125 49.4182 18.316 49.8792 18.6559 50.2191C18.9958 50.559 19.4568 50.75 19.9375 50.75C20.4182 50.75 20.8792 50.559 21.2191 50.2191C21.559 49.8792 21.75 49.4182 21.75 48.9375V41.6875H32.625C33.1057 41.6875 33.5667 41.4965 33.9066 41.1566C34.2465 40.8167 34.4375 40.3557 34.4375 39.875C34.4375 39.3943 34.2465 38.9333 33.9066 38.5934C33.5667 38.2535 33.1057 38.0625 32.625 38.0625H21.75V34.4375H33.5312ZM21.75 10.875H33.5312C36.1751 10.875 38.7107 11.9253 40.5802 13.7948C42.4497 15.6643 43.5 18.1999 43.5 20.8438C43.5 23.4876 42.4497 26.0232 40.5802 27.8927C38.7107 29.7622 36.1751 30.8125 33.5312 30.8125H21.75V10.875Z" fill="white"/>
</svg>
