<svg width="36" height="36" viewBox="0 0 36 36" fill="none" xmlns="http://www.w3.org/2000/svg">
<path d="M20.8125 21.375C23.0503 21.375 25.1964 20.4861 26.7787 18.9037C28.3611 17.3214 29.25 15.1753 29.25 12.9375C29.25 10.6997 28.3611 8.55362 26.7787 6.97129C25.1964 5.38895 23.0503 4.5 20.8125 4.5H12.375C12.0766 4.5 11.7905 4.61853 11.5795 4.82951C11.3685 5.04048 11.25 5.32663 11.25 5.625V19.125H7.875C7.57663 19.125 7.29048 19.2435 7.07951 19.4545C6.86853 19.6655 6.75 19.9516 6.75 20.25C6.75 20.5484 6.86853 20.8345 7.07951 21.0455C7.29048 21.2565 7.57663 21.375 7.875 21.375H11.25V23.625H7.875C7.57663 23.625 7.29048 23.7435 7.07951 23.9545C6.86853 24.1655 6.75 24.4516 6.75 24.75C6.75 25.0484 6.86853 25.3345 7.07951 25.5455C7.29048 25.7565 7.57663 25.875 7.875 25.875H11.25V30.375C11.25 30.6734 11.3685 30.9595 11.5795 31.1705C11.7905 31.3815 12.0766 31.5 12.375 31.5C12.6734 31.5 12.9595 31.3815 13.1705 31.1705C13.3815 30.9595 13.5 30.6734 13.5 30.375V25.875H20.25C20.5484 25.875 20.8345 25.7565 21.0455 25.5455C21.2565 25.3345 21.375 25.0484 21.375 24.75C21.375 24.4516 21.2565 24.1655 21.0455 23.9545C20.8345 23.7435 20.5484 23.625 20.25 23.625H13.5V21.375H20.8125ZM13.5 6.75H20.8125C22.4535 6.75 24.0273 7.4019 25.1877 8.56228C26.3481 9.72266 27 11.2965 27 12.9375C27 14.5785 26.3481 16.1523 25.1877 17.3127C24.0273 18.4731 22.4535 19.125 20.8125 19.125H13.5V6.75Z" fill="#636363"/>
</svg>
