<svg width="32" height="32" viewBox="0 0 32 32" fill="none" xmlns="http://www.w3.org/2000/svg">
<path d="M16.6966 10.3839C16.7081 10.1607 16.8964 9.98911 17.1171 10.0008C17.9428 10.0443 18.6298 10.2972 19.1191 10.809C19.6065 11.3188 19.8455 12.031 19.8874 12.8863C19.8984 13.1096 19.7283 13.2996 19.5076 13.3107C19.2868 13.3218 19.099 13.1497 19.0881 12.9264C19.0522 12.1942 18.8536 11.6958 18.5438 11.3718C18.236 11.0498 17.7661 10.8457 17.0754 10.8093C16.8547 10.7976 16.6851 10.6072 16.6966 10.3839Z" fill="black"/>
<path d="M16.6916 7.82904C16.4766 7.77686 16.2606 7.9108 16.209 8.1282C16.1575 8.34559 16.2899 8.56412 16.5048 8.6163C16.6646 8.65511 16.8267 8.69159 16.9901 8.72834C17.8127 8.91343 18.6662 9.10547 19.4166 9.63756C20.2782 10.2485 21.0412 11.3493 21.2526 13.5947C21.2736 13.8173 21.4689 13.9805 21.6889 13.9593C21.9089 13.9381 22.0703 13.7405 22.0493 13.518C21.8214 11.0964 20.9733 9.75264 19.876 8.97458C18.9824 8.34097 17.9467 8.11079 17.1249 7.92813C16.9723 7.89422 16.8271 7.86195 16.6916 7.82904Z" fill="black"/>
<path d="M15.384 6.12978C15.3855 5.90622 15.5659 5.72624 15.7869 5.7278C18.1092 5.74416 20.0722 6.52625 21.6482 8.08047C23.2374 9.64769 24.0233 11.7813 24.0433 14.4312C24.0449 14.6548 23.8672 14.8374 23.6462 14.8391C23.4252 14.8408 23.2446 14.661 23.243 14.4374C23.2243 11.9543 22.494 10.0453 21.0895 8.6602C19.6718 7.26215 17.9116 6.55241 15.7813 6.5374C15.5603 6.53584 15.3824 6.35334 15.384 6.12978Z" fill="black"/>
<path d="M18.0411 17.9991C17.7383 18.3766 17.1758 18.3286 17.1758 18.3286C13.0645 17.2668 11.9641 13.054 11.9641 13.054C11.9641 13.054 11.9147 12.485 12.2898 12.1786L13.0326 11.5813C13.401 11.2941 13.636 10.5973 13.261 9.91689C12.9733 9.40613 12.6606 8.91026 12.3239 8.43115C11.9969 7.97928 11.235 7.05393 11.2321 7.05105C10.8647 6.61263 10.3245 6.51083 9.7549 6.81095C9.75317 6.81095 9.75081 6.81173 9.74853 6.81248C9.74643 6.81317 9.7444 6.81383 9.74303 6.81383C9.17648 7.14405 8.66562 7.56358 8.22971 8.05659C8.22823 8.0596 8.22674 8.06104 8.22526 8.06247C8.22389 8.06379 8.22253 8.06511 8.22117 8.06764C7.86926 8.49726 7.66783 8.91839 7.61688 9.33104C7.60631 9.39189 7.60264 9.45376 7.60597 9.51544C7.60407 9.69766 7.63149 9.87899 7.68714 10.0523L7.7066 10.0658C7.88414 10.7035 8.32845 11.7657 9.29397 13.5366C9.84623 14.561 10.4832 15.5362 11.198 16.4519C11.5561 16.911 11.9399 17.3488 12.3477 17.7634C12.3526 17.7683 12.3574 17.7733 12.3623 17.7783C12.372 17.7881 12.3815 17.798 12.3913 17.8075L12.5224 17.9401C12.9321 18.3525 13.365 18.7409 13.8187 19.1031C14.724 19.8263 15.6883 20.4707 16.7011 21.0292C18.4513 22.0059 19.5022 22.4554 20.1317 22.635L20.145 22.6547C20.3163 22.7112 20.4955 22.739 20.6757 22.7373C20.7367 22.7403 20.7978 22.7364 20.8579 22.7258C21.2665 22.6768 21.6825 22.4733 22.1059 22.1154C22.1084 22.114 22.1097 22.1127 22.111 22.1113C22.1124 22.1098 22.1139 22.1083 22.1168 22.1068C22.6042 21.6657 23.019 21.1489 23.3458 20.5759C23.3458 20.5745 23.3464 20.5725 23.3469 20.5703C23.3475 20.568 23.3482 20.5656 23.3482 20.5639C23.6449 19.9877 23.5442 19.4412 23.1085 19.069C23.1079 19.069 23.0724 19.0394 23.0122 18.9893C22.7652 18.7834 22.1034 18.2318 21.7442 17.9646C21.271 17.624 20.7813 17.3077 20.2769 17.0167C19.6038 16.6373 18.9165 16.875 18.6316 17.2476L18.0411 17.9991Z" fill="black"/>
<path fill-rule="evenodd" clip-rule="evenodd" d="M27.6137 3.12122C26.8276 2.38748 23.6509 0.0546621 16.5752 0.0229688C16.5752 0.0229688 8.23104 -0.486044 4.1634 3.28833C1.89912 5.57937 1.10259 8.93165 1.01857 13.0878C0.93455 17.2439 0.825844 25.0328 8.24765 27.1447H8.25478L8.25003 30.3673C8.25003 30.3673 8.20256 31.672 9.05178 31.9381C9.90907 32.2074 10.4708 31.5613 11.2032 30.7188L11.2036 30.7184C11.3487 30.5515 11.5005 30.3769 11.6626 30.2002C12.2009 29.6134 12.9443 28.7515 13.5044 28.0926C18.5803 28.5248 22.4841 27.537 22.9275 27.391C23.019 27.361 23.1486 27.3277 23.3093 27.2864C24.9492 26.8645 29.8359 25.6076 30.6949 18.515C31.6685 10.4875 30.224 5.40986 27.6137 3.12122ZM28.4738 17.9393C27.757 23.7945 23.8722 24.7089 22.4724 25.0384C22.3176 25.0749 22.1931 25.1042 22.1068 25.1322C21.7379 25.2522 18.3092 26.1152 13.9976 25.8304C13.9976 25.8304 10.7849 29.7512 9.78138 30.7707C9.62474 30.9301 9.44056 30.9945 9.31761 30.9628C9.14482 30.92 9.09735 30.7131 9.09925 30.4105C9.1021 29.9784 9.12678 25.0553 9.12678 25.0553C3.05597 23.3503 3.19756 17.0957 3.27793 13.5457C3.28067 13.4244 3.28335 13.3062 3.2857 13.1915C3.3569 9.72014 4.00153 6.87639 5.91644 4.96375C9.35701 1.81124 16.4446 2.28231 16.4446 2.28231C22.43 2.30872 25.2981 4.13205 25.9632 4.74286C28.1714 6.6555 29.2964 11.2323 28.4738 17.9373V17.9393Z" fill="black"/>
</svg>
